<svg width="47" height="47" viewBox="0 0 47 47" fill="none" xmlns="http://www.w3.org/2000/svg">
<path d="M35.6552 0H11.3448C5.07925 0 0 5.26065 0 11.75V35.25C0 41.7393 5.07925 47 11.3448 47H35.6552C41.9207 47 47 41.7393 47 35.25V11.75C47 5.26065 41.9207 0 35.6552 0Z" fill="#FFF3F3"/>
<path d="M18.8918 15.2037V20.3254H15V26.5879H18.8918V39H22.886H26.8802V26.5897H32.2425C32.2425 26.5897 32.7449 23.5871 32.9884 20.3031H26.913V16.02C26.913 15.3807 27.7826 14.5196 28.6444 14.5196H33V8C33 8 32.3077 8 27.0792 8C21.8508 8 18.8918 12.2273 18.8918 15.2037Z" fill="#3A559F"/>
</svg>
