<svg width="48" height="47" viewBox="0 0 48 47" fill="none" xmlns="http://www.w3.org/2000/svg">
<path d="M12.0948 0.75H36.4052C42.2319 0.75 47 5.64984 47 11.75V35.25C47 41.3502 42.2319 46.25 36.4052 46.25H12.0948C6.26805 46.25 1.5 41.3502 1.5 35.25V11.75C1.5 5.64984 6.26805 0.75 12.0948 0.75Z" fill="#FFF3F3" stroke="black" stroke-width="1.5"/>
<path d="M27.2893 25.504H28.0393V24.754V18.6527C28.0393 15.5159 31.2961 10.8214 37.215 10.8214H37.252H37.289H37.3258H37.3625H37.3991H37.4355H37.4719H37.5081H37.5441H37.5801H37.6159H37.6516H37.6872H37.7227H37.758H37.7932H37.8283H37.8633H37.8981H37.9328H37.9675H38.0019H38.0363H38.0705H38.1047H38.1386H38.1725H38.2063H38.2399H38.2734H38.3068H38.3401H38.3733H38.4063H38.4392H38.472H38.5047H38.5373H38.5697H38.6021H38.6343H38.6664H38.6984H38.7302H38.762H38.7936H38.8251H38.8565H38.8878H38.9189H38.95H38.9809H39.0117H39.0424H39.073H39.1035H39.1339H39.1641H39.1942H39.2243H39.2542H39.284H39.3136H39.3432H39.3727H39.402H39.4312H39.4604H39.4894H39.5183H39.547H39.5757H39.6043H39.6327H39.6611H39.6893H39.7174H39.7454H39.7733H39.8011H39.8288H39.8564H39.8838H39.9112H39.9384H39.9656H39.9926H40.0195H40.0464H40.0731H40.0997H40.1262H40.1525H40.1788H40.205H40.2311H40.257H40.2829H40.3086H40.3343H40.3598H40.3853H40.4106H40.4358H40.461H40.486H40.5109H40.5357H40.5604H40.585H40.6095H40.6339H40.6582H40.6824H40.7065H40.7305H40.7544H40.7782H40.8019H40.8255H40.8489H40.8723H40.8956H40.9188H40.9419H40.9649H40.9877H41.0105H41.0332H41.0558H41.0783H41.1007H41.123H41.1452H41.1673H41.1892H41.2111H41.233H41.2547H41.2763H41.2978H41.3192H41.3405H41.3617H41.3829H41.4039H41.4248H41.4457H41.4664H41.4871H41.5076H41.5281H41.5484H41.5687H41.5889H41.609H41.629H41.6489H41.6687H41.6884H41.708H41.7275H41.747H41.7663H41.7856H41.8047H41.8238H41.8428H41.8617H41.8805H41.8992H41.9178H41.9363H41.9548H41.9731H41.9914H42.0095H42.0276H42.0456H42.0635H42.0813H42.0991H42.1167H42.1342H42.1517H42.1691H42.1864H42.2036H42.2207H42.2377H42.2547H42.2715H42.2883H42.305H42.3216H42.3381H42.3545H42.3708H42.3871H42.4033H42.4194H42.4354H42.4513H42.4671H42.4829H42.4986H42.5142H42.5297H42.5451H42.5604H42.5757H42.5909H42.606H42.621H42.6359H42.6508H42.6655H42.6802H42.6948H42.7094H42.7238H42.7382H42.7525H42.7667H42.7808H42.7949H42.8088H42.8227H42.8366H42.8503H42.864H42.8775H42.8911H42.9045H42.9178H42.9311H42.9443H42.9574H42.9705H42.9834H42.9963H43.0091H43.0219H43.0346H43.0471H43.0597H43.0721H43.0845H43.0968H43.109H43.1211H43.1332H43.1452H43.1571H43.169H43.1808H43.1925H43.2041H43.2157H43.2272H43.2386H43.2499H43.2612H43.2724H43.2835H43.2946H43.3056H43.3165H43.3274H43.3382H43.3489H43.3595H43.3701H43.3806H43.391H43.4014H43.4117H43.4219H43.4321H43.4422H43.4522H43.4622H43.4721H43.4819H43.4917H43.5014H43.511H43.5206H43.5301H43.5395H43.5489H43.5582H43.5674H43.5766H43.5857H43.5947H43.6037H43.6126H43.6214H43.6302H43.639H43.6427V17.0879H39.1125C38.3559 17.0879 37.6609 17.4501 37.1719 17.8863C36.7033 18.3044 36.2635 18.9384 36.2635 19.6252V24.7274V25.4774H37.0135H43.5652C43.4228 27.1168 43.2344 28.6555 43.0728 29.8373C42.9801 30.5152 42.8963 31.0745 42.8354 31.4663H36.9737H36.2237V32.2163V46.25H32.1315H28.0393V32.2141V31.4641H27.2893H23.3213V25.504H27.2893Z" fill="#4655DB" stroke="black" stroke-width="1.5"/>
</svg>
