<svg width="188" height="47" viewBox="0 0 188 47" fill="none" xmlns="http://www.w3.org/2000/svg">
<path fill-rule="evenodd" clip-rule="evenodd" d="M0 23.088C0 35.6881 9.80078 46.088 24.4702 46.088L162.614 46.086C177.287 46.086 187.087 35.691 187.087 23.086C187.087 10.481 177.265 -0.0336107 162.638 8.07423e-05H24.4492C9.82617 -0.0336107 0 10.4884 0 23.088ZM5.77295 23.0499C5.77295 13.4493 12.9028 5.68612 24.5161 5.6661V5.67098H162.565C174.183 5.69198 181.311 13.4503 181.311 23.0499C181.311 32.65 174.223 40.4742 162.565 40.4312H24.5161C12.8569 40.4742 5.77295 32.651 5.77295 23.0499Z" fill="white"/>
<path fill-rule="evenodd" clip-rule="evenodd" d="M18.007 12.7037H24.763L34.118 27.8317L34.107 12.7037H40.812V34.4037H34.112L24.712 19.2747V34.4037H18L18.007 12.7037ZM77.285 14.9377H83.807V17.8567H87.34V19.9997H83.807V34.3997H77.281V19.9997H73.738V17.8587H77.286L77.285 14.9377ZM44.55 19.9737H51.075V34.4017H44.55V19.9737ZM44.536 12.6997H51.075V17.1357H44.536V12.6997ZM161.507 27.0717C161.507 27.0717 161.507 29.2497 161.507 30.1267C161.507 32.4267 160.15 33.3767 158.839 33.3767C157.528 33.3767 156.167 32.4257 156.167 30.1267C156.167 29.2497 156.167 27.0177 156.167 27.0177C156.167 27.0177 156.173 24.8847 156.173 24.0077C156.173 21.7177 157.534 20.7757 158.835 20.7757C160.136 20.7757 161.503 21.7177 161.503 24.0077C161.503 24.8847 161.503 26.4997 161.503 27.0817V27.0717H161.507ZM158.886 18.9877C153.622 18.9877 149.355 22.6157 149.355 27.0877C149.355 31.5597 153.623 35.1877 158.886 35.1877C164.149 35.1877 168.423 31.5607 168.423 27.0877C168.423 22.6147 164.156 18.9877 158.886 18.9877ZM140.786 12.7037H147.225V34.3977H140.777V33.5677C139.67 34.28 138.403 34.7028 137.09 34.7974C135.777 34.8919 134.462 34.6551 133.265 34.1087C131.906 33.4796 130.76 32.468 129.968 31.1977C129.175 29.9275 128.77 28.4537 128.802 26.9567C128.839 25.912 129.084 24.8852 129.523 23.9366C129.962 22.9879 130.586 22.1366 131.359 21.4326C132.132 20.7286 133.038 20.1861 134.023 19.837C135.008 19.4879 136.053 19.3392 137.097 19.3997C138.409 19.5445 139.672 19.9845 140.79 20.6867L140.786 12.7037ZM140.833 27.1147V24.5367C140.864 24.1818 140.822 23.8242 140.707 23.4867C140.593 23.1492 140.41 22.8392 140.169 22.5763C139.929 22.3135 139.636 22.1036 139.31 21.96C138.984 21.8165 138.631 21.7423 138.275 21.7423C137.919 21.7423 137.566 21.8165 137.24 21.96C136.914 22.1036 136.621 22.3135 136.381 22.5763C136.14 22.8392 135.957 23.1492 135.843 23.4867C135.728 23.8242 135.686 24.1818 135.717 24.5367C135.717 25.2727 135.717 27.1087 135.717 27.1087C135.717 27.1087 135.717 28.9037 135.717 29.6727C135.684 30.0286 135.726 30.3874 135.839 30.7263C135.953 31.0652 136.136 31.3766 136.376 31.6407C136.617 31.9049 136.91 32.1159 137.237 32.2602C137.564 32.4046 137.918 32.4792 138.275 32.4792C138.632 32.4792 138.986 32.4046 139.313 32.2602C139.64 32.1159 139.933 31.9049 140.174 31.6407C140.414 31.3766 140.597 31.0652 140.711 30.7263C140.824 30.3874 140.866 30.0286 140.833 29.6727V27.1147ZM66.348 19.3067C68.786 19.2397 73.738 20.8367 73.702 26.5507C73.695 27.5627 73.702 34.3987 73.702 34.3987H67.218V24.9237C67.1595 24.1822 66.817 23.492 66.262 22.9968C65.707 22.5016 64.9823 22.2397 64.239 22.2657C63.4825 22.237 62.7431 22.4948 62.1684 22.9875C61.5937 23.4803 61.2261 24.1717 61.139 24.9237L61.146 34.3987H54.668L54.663 19.9717H61.146C61.146 19.9717 61.139 21.1337 61.146 21.4877C62.5513 20.1454 64.4035 19.3703 66.346 19.3117L66.348 19.3067ZM119.375 19.3067C121.809 19.2397 126.76 20.8367 126.729 26.5507C126.719 27.5627 126.723 34.3987 126.723 34.3987H120.241V24.9237C120.183 24.182 119.841 23.4915 119.286 22.9962C118.73 22.5009 118.005 22.2392 117.262 22.2657C116.506 22.2379 115.767 22.4961 115.192 22.9886C114.618 23.4812 114.25 24.1721 114.162 24.9237L114.172 34.3987H107.695V19.9717H114.168C114.168 19.9717 114.158 21.1337 114.168 21.4877C115.574 20.144 117.429 19.3688 119.373 19.3117L119.375 19.3067ZM93.423 25.0017C93.3116 24.0365 93.4593 23.0589 93.851 22.1697C94.0873 21.7698 94.4237 21.4383 94.8269 21.2077C95.2302 20.9772 95.6865 20.8555 96.151 20.8547C96.615 20.8546 97.071 20.9759 97.4736 21.2066C97.8762 21.4373 98.2115 21.7693 98.446 22.1697C98.8368 23.0592 98.9845 24.0365 98.874 25.0017H93.423ZM98.841 29.3537C98.841 29.3537 98.847 29.4177 98.847 30.2307C98.847 32.8697 97.111 33.4577 96.147 33.4577C95.183 33.4577 93.415 32.8697 93.415 30.2307C93.415 29.4377 93.425 27.2507 93.425 27.2507H105.712C105.712 22.7747 101.394 19.0677 96.087 19.0677C90.78 19.0677 86.48 22.6957 86.48 27.1677C86.48 31.6397 90.78 35.2677 96.087 35.2677C100.487 35.2677 104.206 32.7537 105.345 29.3437L98.838 29.3497L98.841 29.3537ZM168.875 17.8667H168.123V12.9257H170.007C171.171 12.9257 171.751 13.3567 171.751 14.3257C171.761 14.5005 171.735 14.6754 171.675 14.8399C171.615 15.0043 171.522 15.1548 171.402 15.2822C171.282 15.4096 171.137 15.5111 170.977 15.5807C170.816 15.6502 170.643 15.6863 170.468 15.6867L171.868 17.8627H171.032L169.732 15.7197H168.875V17.8627V17.8667ZM169.769 15.0887C170.404 15.0887 170.969 15.0447 170.969 14.2887C170.969 13.6777 170.414 13.5627 169.897 13.5627H168.877V15.0927L169.769 15.0887Z" fill="white"/>
<path fill-rule="evenodd" clip-rule="evenodd" d="M165.427 15.383C165.418 14.5235 165.665 13.6809 166.136 12.9619C166.607 12.2428 167.281 11.6799 168.072 11.3443C168.863 11.0088 169.736 10.9158 170.58 11.0772C171.425 11.2385 172.202 11.647 172.814 12.2507C173.425 12.8544 173.844 13.6262 174.016 14.4682C174.189 15.3102 174.107 16.1845 173.782 16.9801C173.457 17.7758 172.903 18.4569 172.191 18.9372C171.478 19.4176 170.638 19.6754 169.779 19.678C169.21 19.6877 168.644 19.5837 168.115 19.372C167.587 19.1603 167.106 18.8452 166.7 18.4452C166.295 18.0452 165.974 17.5683 165.755 17.0425C165.536 16.5166 165.425 15.9524 165.427 15.383ZM169.779 18.964C170.488 18.9803 171.186 18.7851 171.783 18.4033C172.381 18.0216 172.851 17.4705 173.134 16.8204C173.417 16.1704 173.5 15.4507 173.373 14.7532C173.245 14.0557 172.913 13.4119 172.418 12.904C171.924 12.396 171.289 12.0469 170.595 11.9012C169.901 11.7554 169.179 11.8196 168.522 12.0855C167.865 12.3515 167.301 12.8071 166.904 13.3944C166.507 13.9816 166.293 14.6739 166.291 15.383C166.274 15.8499 166.352 16.3155 166.52 16.7515C166.688 17.1875 166.943 17.5848 167.269 17.9196C167.595 18.2543 167.986 18.5194 168.417 18.6989C168.848 18.8785 169.312 18.9686 169.779 18.964Z" fill="white"/>
</svg>
