<svg width="188" height="47" viewBox="0 0 188 47" fill="none" xmlns="http://www.w3.org/2000/svg">
<path fill-rule="evenodd" clip-rule="evenodd" d="M24.47 46.0881C9.801 46.0881 0 35.6881 0 23.0881C0 10.4881 9.826 -0.0339178 24.449 8.22233e-05H162.638C177.265 -0.0339178 187.087 10.4811 187.087 23.0861C187.087 35.6911 177.287 46.0861 162.614 46.0861L24.47 46.0881ZM24.5155 5.66602C12.9025 5.68602 5.77246 13.449 5.77246 23.05C5.77246 32.651 12.8565 40.474 24.5155 40.431H162.564C174.222 40.474 181.31 32.65 181.31 23.05C181.31 13.45 174.182 5.69201 162.564 5.67101H24.5155V5.66602Z" fill="#CC2131"/>
<path fill-rule="evenodd" clip-rule="evenodd" d="M18.5646 11.7037H25.3206L34.6756 26.8317L34.6646 11.7037H41.3696V33.4037H34.6696L25.2696 18.2747V33.4037H18.5576L18.5646 11.7037ZM77.8426 13.9377H84.3646V16.8567H87.8976V18.9997H84.3646V33.3997H77.8386V18.9997H74.2956V16.8587H77.8436L77.8426 13.9377ZM45.1076 18.9737H51.6326V33.4017H45.1076V18.9737ZM45.0936 11.6997H51.6326V16.1357H45.0936V11.6997ZM162.065 26.0717C162.065 26.0717 162.065 28.2497 162.065 29.1267C162.065 31.4267 160.708 32.3767 159.397 32.3767C158.086 32.3767 156.725 31.4257 156.725 29.1267C156.725 28.2497 156.725 26.0177 156.725 26.0177C156.725 26.0177 156.731 23.8847 156.731 23.0077C156.731 20.7177 158.092 19.7757 159.393 19.7757C160.694 19.7757 162.061 20.7177 162.061 23.0077C162.061 23.8847 162.061 25.4997 162.061 26.0817V26.0717H162.065ZM159.444 17.9877C154.18 17.9877 149.913 21.6157 149.913 26.0877C149.913 30.5597 154.181 34.1877 159.444 34.1877C164.707 34.1877 168.981 30.5607 168.981 26.0877C168.981 21.6147 164.714 17.9877 159.444 17.9877ZM141.344 11.7037H147.783V33.3977H141.335V32.5677C140.228 33.28 138.96 33.7028 137.648 33.7974C136.335 33.8919 135.02 33.6551 133.823 33.1087C132.464 32.4796 131.318 31.468 130.525 30.1977C129.733 28.9275 129.328 27.4537 129.36 25.9567C129.396 24.912 129.642 23.8852 130.081 22.9366C130.52 21.9879 131.144 21.1366 131.917 20.4326C132.69 19.7286 133.595 19.1861 134.581 18.837C135.566 18.4879 136.611 18.3392 137.655 18.3997C138.967 18.5445 140.23 18.9845 141.348 19.6867L141.344 11.7037ZM141.391 26.1147V23.5367C141.422 23.1818 141.379 22.8242 141.265 22.4867C141.151 22.1492 140.967 21.8392 140.727 21.5763C140.486 21.3135 140.194 21.1036 139.867 20.96C139.541 20.8165 139.189 20.7423 138.833 20.7423C138.476 20.7423 138.124 20.8165 137.798 20.96C137.472 21.1036 137.179 21.3135 136.938 21.5763C136.698 21.8392 136.515 22.1492 136.4 22.4867C136.286 22.8242 136.243 23.1818 136.275 23.5367C136.275 24.2727 136.275 26.1087 136.275 26.1087C136.275 26.1087 136.275 27.9037 136.275 28.6727C136.242 29.0286 136.283 29.3874 136.397 29.7263C136.51 30.0652 136.693 30.3766 136.934 30.6407C137.175 30.9049 137.468 31.1159 137.795 31.2602C138.122 31.4046 138.475 31.4792 138.833 31.4792C139.19 31.4792 139.543 31.4046 139.87 31.2602C140.197 31.1159 140.491 30.9049 140.731 30.6407C140.972 30.3766 141.155 30.0652 141.269 29.7263C141.382 29.3874 141.424 29.0286 141.391 28.6727V26.1147ZM66.9056 18.3067C69.3436 18.2397 74.2956 19.8367 74.2596 25.5507C74.2526 26.5627 74.2596 33.3987 74.2596 33.3987H67.7756V23.9237C67.7171 23.1822 67.3746 22.492 66.8196 21.9968C66.2646 21.5016 65.54 21.2397 64.7966 21.2657C64.0402 21.237 63.3007 21.4948 62.726 21.9875C62.1513 22.4803 61.7837 23.1717 61.6966 23.9237L61.7036 33.3987H55.2256L55.2206 18.9717H61.7036C61.7036 18.9717 61.6966 20.1337 61.7036 20.4877C63.1089 19.1454 64.9611 18.3703 66.9036 18.3117L66.9056 18.3067ZM119.933 18.3067C122.367 18.2397 127.318 19.8367 127.287 25.5507C127.277 26.5627 127.281 33.3987 127.281 33.3987H120.799V23.9237C120.741 23.182 120.398 22.4915 119.843 21.9962C119.288 21.5009 118.563 21.2392 117.82 21.2657C117.063 21.2379 116.324 21.4961 115.75 21.9886C115.175 22.4812 114.808 23.1721 114.72 23.9237L114.73 33.3987H108.253V18.9717H114.726C114.726 18.9717 114.716 20.1337 114.726 20.4877C116.132 19.144 117.986 18.3688 119.931 18.3117L119.933 18.3067ZM93.9806 24.0017C93.8692 23.0365 94.017 22.0589 94.4086 21.1697C94.645 20.7698 94.9813 20.4383 95.3845 20.2077C95.7878 19.9772 96.2441 19.8555 96.7086 19.8547C97.1726 19.8546 97.6286 19.9759 98.0312 20.2066C98.4338 20.4373 98.7691 20.7693 99.0036 21.1697C99.3944 22.0592 99.5421 23.0365 99.4316 24.0017H93.9806ZM99.3986 28.3537C99.3986 28.3537 99.4046 28.4177 99.4046 29.2307C99.4046 31.8697 97.6686 32.4577 96.7046 32.4577C95.7406 32.4577 93.9726 31.8697 93.9726 29.2307C93.9726 28.4377 93.9826 26.2507 93.9826 26.2507H106.27C106.27 21.7747 101.952 18.0677 96.6446 18.0677C91.3376 18.0677 87.0376 21.6957 87.0376 26.1677C87.0376 30.6397 91.3376 34.2677 96.6446 34.2677C101.045 34.2677 104.764 31.7537 105.903 28.3437L99.3956 28.3497L99.3986 28.3537ZM169.433 16.8667H168.681V11.9257H170.565C171.729 11.9257 172.309 12.3567 172.309 13.3257C172.319 13.5005 172.293 13.6754 172.233 13.8399C172.173 14.0043 172.08 14.1548 171.96 14.2822C171.84 14.4096 171.695 14.5111 171.534 14.5807C171.374 14.6502 171.201 14.6863 171.026 14.6867L172.426 16.8627H171.59L170.29 14.7197H169.433V16.8627V16.8667ZM170.327 14.0887C170.962 14.0887 171.527 14.0447 171.527 13.2887C171.527 12.6777 170.972 12.5627 170.455 12.5627H169.435V14.0927L170.327 14.0887Z" fill="#CC2131"/>
<path fill-rule="evenodd" clip-rule="evenodd" d="M165.986 14.383C165.977 13.5235 166.224 12.6809 166.694 11.9619C167.165 11.2428 167.839 10.6799 168.63 10.3443C169.422 10.0088 170.295 9.9158 171.139 10.0772C171.983 10.2385 172.76 10.647 173.372 11.2507C173.984 11.8544 174.403 12.6262 174.575 13.4682C174.748 14.3102 174.666 15.1845 174.341 15.9801C174.016 16.7758 173.462 17.4569 172.749 17.9372C172.036 18.4176 171.197 18.6754 170.338 18.678C169.768 18.6877 169.203 18.5837 168.674 18.372C168.145 18.1603 167.664 17.8452 167.259 17.4452C166.854 17.0452 166.532 16.5683 166.313 16.0425C166.095 15.5166 165.983 14.9524 165.986 14.383ZM170.338 17.964C171.046 17.9803 171.744 17.7851 172.342 17.4033C172.939 17.0216 173.409 16.4705 173.693 15.8204C173.976 15.1704 174.059 14.4507 173.931 13.7532C173.804 13.0557 173.472 12.4119 172.977 11.904C172.482 11.396 171.847 11.0469 171.153 10.9012C170.46 10.7554 169.738 10.8196 169.081 11.0855C168.423 11.3515 167.86 11.8071 167.463 12.3944C167.065 12.9816 166.852 13.6739 166.85 14.383C166.833 14.8499 166.911 15.3155 167.079 15.7515C167.247 16.1875 167.502 16.5848 167.828 16.9196C168.154 17.2543 168.544 17.5194 168.976 17.6989C169.407 17.8785 169.87 17.9686 170.338 17.964Z" fill="#CC2131"/>
</svg>
