<svg width="30" height="30" viewBox="0 0 23 18" fill="none" xmlns="http://www.w3.org/2000/svg">
<path d="M1.62667 18C0.728284 18 0 17.2717 0 16.3733V16.3733C0 15.4749 0.728284 14.7467 1.62667 14.7467H21.3733C22.2717 14.7467 23 15.4749 23 16.3733V16.3733C23 17.2717 22.2717 18 21.3733 18H1.62667ZM1.627 10.6267C0.728431 10.6267 0 9.89824 0 8.99967V8.99967C0 8.10111 0.72843 7.37268 1.62699 7.37268H21.373C22.2716 7.37268 23 8.10111 23 8.99967V8.99967C23 9.89824 22.2716 10.6267 21.373 10.6267H1.627ZM1.62667 3.25334C0.728283 3.25334 0 2.52505 0 1.62667V1.62667C0 0.728284 0.728284 0 1.62667 0H21.3733C22.2717 0 23 0.728284 23 1.62667V1.62667C23 2.52505 22.2717 3.25334 21.3733 3.25334H1.62667Z" fill="black"/>
</svg>
