<svg width="80" height="88" viewBox="0 0 80 88" fill="none" xmlns="http://www.w3.org/2000/svg">
<g clip-path="url(#clip0_223_2)">
<path d="M73.7316 1.44678L73.7104 1.46784V1.4889L73.7316 1.44678Z" fill="#232020"/>
<path d="M42.2005 87.9587C41.8476 87.9587 41.4947 87.9587 41.1626 87.9794C41.5155 87.9794 41.8684 87.9794 42.2005 87.9587Z" fill="#EF4231"/>
<path d="M39.9999 87.9999C40.3943 87.9999 40.7679 87.9999 41.1623 87.9792C40.0621 87.9792 38.962 87.9792 37.8618 87.9792C38.5676 87.9999 39.2733 88.0206 39.9999 88.0206V87.9999Z" fill="#FEF491"/>
<path d="M45.5629 87.752C44.442 87.8553 43.3211 87.9173 42.2002 87.938C43.3419 87.8966 44.4835 87.8346 45.5629 87.752Z" fill="#FEF491"/>
<path d="M66.5491 72.9958C66.4661 73.6158 66.3831 74.2358 66.3 74.8558C66.3 74.9385 66.2378 75.0005 66.1547 75.0419C66.1547 75.0832 66.1547 75.1245 66.1547 75.1658C66.217 75.2278 66.1962 75.2899 66.1132 75.3312C66.1547 75.4965 66.1132 75.6619 66.0094 75.8065C66.0509 75.9099 66.0094 75.9719 65.9056 75.9925C65.9056 76.0959 65.8849 76.1992 65.8641 76.2819C65.8434 76.6125 65.7396 76.9432 65.5112 77.1912C65.5112 77.2532 65.4905 77.3359 65.4697 77.3979C65.4905 77.5012 65.4282 77.5632 65.3452 77.5839C65.3452 77.6252 65.3452 77.6666 65.3244 77.7079C65.2414 78.1212 65.0961 78.4932 64.764 78.7619C64.764 78.7826 64.764 78.8032 64.7432 78.8239C64.6394 79.2166 64.4318 79.5473 64.1205 79.7953C64.1205 79.8159 64.1205 79.8573 64.0997 79.8779C63.9752 80.2499 63.6846 80.5186 63.394 80.7666C63.3732 80.7873 63.3524 80.8079 63.3317 80.8493C63.2902 81.0353 63.1864 81.1386 62.9996 81.1799C62.9996 81.2006 62.9996 81.2213 62.9788 81.2419C62.9373 81.3246 62.875 81.3659 62.8335 81.4279C65.1584 79.1959 66.6114 76.3439 66.8812 72.8098C66.8812 72.8098 66.8812 72.8305 66.8397 72.8305C66.7775 72.9338 66.6737 72.9338 66.5699 72.9545L66.5491 72.9958Z" fill="#FEF491"/>
<path d="M13.5753 74.3805C13.4508 73.6364 13.4715 72.8511 13.264 72.1278C13.2017 72.1071 13.1394 72.0657 13.0771 72.0244C13.1602 75.7651 14.5094 78.7619 16.7928 81.1179C16.4191 80.7045 16.0247 80.2705 15.6926 79.8159C14.5717 78.1832 13.8867 76.3645 13.5546 74.4011L13.5753 74.3805Z" fill="#FEF491"/>
<path d="M40.0001 55.6355C25.1168 55.6355 13.0566 59.9962 13.0566 71.6524C13.0566 71.7764 13.0774 71.9004 13.0774 72.0244C13.1397 72.0451 13.2019 72.0864 13.2642 72.1277C13.4718 72.8718 13.451 73.6364 13.5756 74.3804C13.8869 76.3438 14.5719 78.1625 15.7136 79.7952C16.0457 80.2705 16.4194 80.6839 16.8138 81.0972C20.7785 85.1686 27.587 87.2766 35.5787 87.8346C36.2429 87.876 36.9072 87.9173 37.5714 87.938C37.6545 87.938 37.7582 87.938 37.8413 87.938C38.9414 87.9793 40.0416 87.9793 41.1417 87.938C41.4946 87.938 41.8475 87.938 42.1796 87.9173C43.3005 87.876 44.4215 87.814 45.5424 87.7313C52.8075 87.0906 58.9726 85.0859 62.792 81.4486C62.8335 81.3865 62.9165 81.3452 62.9373 81.2625C62.9373 81.2419 62.958 81.2212 62.958 81.2005C63.1449 81.1592 63.2486 81.0559 63.2902 80.8699C63.3109 80.8492 63.3317 80.8285 63.3524 80.7872C63.643 80.5392 63.9336 80.2705 64.0582 79.8985C64.0582 79.8779 64.079 79.8572 64.079 79.8159C64.3903 79.5679 64.5979 79.2372 64.7017 78.8445C64.7017 78.8238 64.7224 78.8032 64.7224 78.7825C65.0546 78.4932 65.1791 78.1212 65.2829 77.7285C65.2829 77.6872 65.2829 77.6458 65.3037 77.6045C65.3867 77.5632 65.449 77.5218 65.4282 77.4185C65.4282 77.3565 65.449 77.2738 65.4697 77.2118C65.6981 76.9432 65.8018 76.6331 65.8226 76.3025C65.8226 76.1991 65.8434 76.0958 65.8641 76.0131C65.9471 75.9718 66.0094 75.9305 65.9679 75.8271C66.0509 75.6825 66.0924 75.5171 66.0717 75.3518C66.1547 75.3105 66.1755 75.2691 66.1132 75.1865C66.1132 75.1451 66.1132 75.1038 66.1132 75.0625C66.1962 75.0211 66.2378 74.9591 66.2585 74.8765C66.3415 74.2564 66.4246 73.6364 66.5076 73.0164C66.6114 73.0164 66.7152 72.9958 66.7774 72.8924C66.7774 72.8924 66.7982 72.8924 66.819 72.8718C66.8397 72.4791 66.902 72.0864 66.902 71.6731C66.902 60.0169 54.8418 55.6562 39.9586 55.6562L40.0001 55.6355Z" fill="#FEF491"/>
<path d="M31.4895 64.1089H31.4688C30.4828 64.1089 29.6836 64.9046 29.6836 65.8862V75.5377C29.6836 76.5193 30.4828 77.3151 31.4688 77.3151H31.4895C32.4754 77.3151 33.2747 76.5193 33.2747 75.5377V65.8862C33.2747 64.9046 32.4754 64.1089 31.4895 64.1089Z" fill="#414042"/>
<path d="M47.0989 64.1089H47.0781C46.0922 64.1089 45.293 64.9046 45.293 65.8862V75.5377C45.293 76.5193 46.0922 77.3151 47.0781 77.3151H47.0989C48.0848 77.3151 48.884 76.5193 48.884 75.5377V65.8862C48.884 64.9046 48.0848 64.1089 47.0989 64.1089Z" fill="#414042"/>
<path d="M68.4796 44.2893C67.0265 36.7045 69.4136 29.8017 73.835 28.1897C73.7105 28.0037 73.6067 27.8384 73.4821 27.6523C73.4821 27.6317 73.4821 27.611 73.4406 27.611C73.4406 27.487 73.3576 27.3837 73.2746 27.2803C72.2574 25.751 71.1573 24.2836 69.9533 22.8989C66.7567 19.2202 62.9995 16.2028 58.7235 13.8468C57.7271 13.3095 56.7307 12.7515 55.6513 12.3794C55.6513 12.3588 55.6306 12.3588 55.6098 12.3588L55.4853 12.2968C55.4853 12.2968 55.4645 12.2761 55.4437 12.2761C55.4022 12.1934 55.3192 12.1728 55.2362 12.1728C55.0701 12.1108 54.8833 12.0281 54.7172 11.9661C54.6757 11.9661 54.6342 11.9248 54.5927 11.9041C54.5304 11.8834 54.4474 11.8628 54.3851 11.8421C54.3228 11.8214 54.2606 11.7801 54.1983 11.7594C54.1568 11.7594 54.0945 11.7388 54.053 11.7181C54.0115 11.7181 53.9907 11.6768 53.9492 11.6561C53.6793 11.5321 53.4303 11.4081 53.1397 11.3461C53.1189 11.3461 53.0774 11.3461 53.0566 11.3254H53.0151C52.9736 11.3254 52.9321 11.2841 52.8906 11.2634L52.6 11.1601C52.3924 10.9948 52.164 10.9534 51.9149 10.9328H51.8112C51.8112 10.9328 51.7281 10.8708 51.6866 10.8501C51.4168 10.7468 51.1262 10.6434 50.8355 10.5814C50.7318 10.4781 50.6072 10.4368 50.4412 10.4781C50.3789 10.4574 50.2959 10.4161 50.2336 10.3954C50.0052 10.2714 49.7562 10.2094 49.4863 10.1887C49.3618 10.1474 49.2165 10.1267 49.0919 10.0854C49.0089 10.0441 48.9466 9.96141 48.8428 10.0234C48.7598 10.0234 48.6975 9.98208 48.6145 9.96141C48.5937 9.96141 48.5522 9.96141 48.5314 9.94075C48.4692 9.94075 48.4069 9.92008 48.3446 9.89941C48.2616 9.81674 48.1578 9.81674 48.054 9.83741C47.9918 9.83741 47.9295 9.81674 47.8672 9.79608C47.7842 9.73408 47.6804 9.71341 47.5766 9.73408H47.5351C47.4936 9.73408 47.4521 9.71341 47.4105 9.69274C47.3898 9.69274 47.3483 9.69274 47.3275 9.69274C47.2445 9.69274 47.1822 9.67208 47.0992 9.65141H47.0577C46.9954 9.58941 46.9331 9.58941 46.8501 9.61007C46.8501 9.61007 46.8293 9.61007 46.8086 9.61007C46.5595 9.46541 46.3104 9.44474 46.0198 9.44474C45.9783 9.44474 45.916 9.44474 45.8745 9.42407C44.9819 9.2794 44.1101 9.11407 43.1967 9.0934C43.176 9.0314 43.1137 9.01073 43.0514 9.0314C42.9892 9.0314 42.9269 9.0314 42.8439 9.05207C42.0966 8.8454 41.3493 8.86606 40.602 8.88673C49.8807 8.9694 57.395 16.4715 57.395 25.7303C57.395 34.9891 49.8184 42.5946 40.4567 42.5946C31.095 42.5946 23.5185 35.0511 23.5185 25.7303C23.5185 16.4095 30.9705 9.01073 40.2284 8.88673C40.1454 8.88673 40.0623 8.88673 39.9793 8.88673C39.0452 8.88673 38.0696 8.82473 37.1147 9.0314C36.575 9.0314 36.0561 9.19673 35.5164 9.23807C35.4956 9.23807 35.4541 9.23807 35.4334 9.23807C35.2881 9.19673 35.1428 9.1554 34.9975 9.30007C34.7276 9.46541 34.4162 9.36207 34.1464 9.44474L33.9181 9.48607C33.669 9.48607 33.4199 9.48607 33.2123 9.63074C33.15 9.63074 33.0878 9.63074 33.0047 9.65141C32.6934 9.65141 32.4028 9.69274 32.1121 9.83741L31.9668 9.87875C31.9668 9.87875 31.78 9.87874 31.7178 9.94075C31.6762 9.94075 31.614 9.94075 31.5724 9.96141C30.7837 10.1061 30.0156 10.2714 29.2891 10.5814C29.2476 10.5814 29.1853 10.6021 29.1438 10.6228C29.0608 10.5814 28.9777 10.6228 28.9362 10.6848C28.8947 10.6848 28.8532 10.7054 28.8117 10.7261C28.6871 10.7054 28.5833 10.7468 28.4796 10.8088L28.3758 10.8501C28.1474 10.8708 27.9399 10.9328 27.753 11.0568C27.6908 11.0568 27.6285 11.0568 27.587 11.0981C27.5247 11.0981 27.4832 11.0981 27.4209 11.1188C25.1583 11.9041 22.9995 12.8548 20.9238 14.0328C20.3633 14.3428 19.7821 14.6322 19.2839 15.0455C19.2632 15.0455 19.2424 15.0455 19.2216 15.0662C18.4329 15.4795 17.6856 15.9755 17.0006 16.5748C16.8553 16.5955 16.7307 16.6782 16.6685 16.8229C16.6477 16.8229 16.6269 16.8229 16.6269 16.8642C16.2741 17.0502 15.9419 17.2569 15.7136 17.5669C15.6721 17.6082 15.6306 17.6289 15.5683 17.6702C15.423 17.6702 15.34 17.7735 15.2984 17.8975C15.2777 17.8975 15.2569 17.8975 15.2569 17.9389C14.8833 18.1249 14.5927 18.3935 14.3228 18.7035C14.2813 18.7449 14.2398 18.7862 14.1983 18.8069C13.97 18.8895 13.8039 19.0549 13.6794 19.2616C13.285 19.6129 12.8906 19.9849 12.4962 20.3362C12.1225 20.5429 11.8112 20.8529 11.6036 21.2249C11.2715 21.5763 10.9393 21.9276 10.6072 22.2789C10.5034 22.2789 10.4619 22.3409 10.4619 22.4443C10.3374 22.5683 10.2336 22.7129 10.109 22.8369C9.98449 22.8783 9.8807 22.9403 9.8807 23.0849C9.8807 23.0849 9.85994 23.1263 9.83918 23.1469C9.75615 23.1676 9.69388 23.2296 9.69388 23.3123C9.44479 23.6016 9.1957 23.9116 8.9466 24.201C8.82206 24.2216 8.78054 24.325 8.78054 24.4283C8.67676 24.573 8.55221 24.697 8.44842 24.8416L8.38615 24.9243C8.38615 24.9243 8.34463 24.9863 8.32388 25.007C8.22009 25.007 8.17857 25.0896 8.19933 25.193C8.19933 25.193 8.17857 25.2343 8.15781 25.255C8.03327 25.2756 7.99175 25.3583 7.99175 25.4823L7.76342 25.813C7.76342 25.813 7.61812 25.8957 7.61812 25.999C7.61812 25.999 7.59736 26.0403 7.5766 26.061C7.55584 26.0817 7.53508 26.123 7.51433 26.1437L7.47281 26.2263C7.47281 26.2263 7.45205 26.2677 7.4313 26.2883C7.22372 26.433 7.09917 26.6397 7.0369 26.867C6.99539 26.929 6.95387 26.9703 6.91235 27.0323C6.91235 27.053 6.87084 27.0943 6.87084 27.115C6.80857 27.1977 6.76705 27.2803 6.70478 27.363C6.60099 27.3837 6.55947 27.4457 6.58023 27.549C6.58023 27.549 6.55947 27.5903 6.53872 27.611C6.43493 27.6317 6.41417 27.7143 6.41417 27.797L6.3519 27.9004C6.51796 27.9004 6.68402 27.921 6.85008 27.9624C11.8527 28.913 14.6757 36.2291 13.1189 44.3306C11.5828 52.4114 6.26887 58.2188 1.24552 57.2681C1.0587 57.2268 0.871877 57.1648 0.685059 57.1028C0.747332 57.2475 0.809604 57.4128 0.85112 57.5575C0.830362 57.6401 0.85112 57.7228 0.913393 57.8055C0.954908 58.2601 1.07945 58.6942 1.26627 59.0868C1.26627 59.1488 1.30779 59.1902 1.30779 59.2522C1.41158 59.8722 1.66067 60.4302 1.889 60.9882C2.32491 62.0835 2.80234 63.1582 3.48734 64.1296C3.52886 64.2949 3.59113 64.4396 3.73643 64.5222C3.98553 65.0389 4.31765 65.4936 4.71204 65.9069C4.7328 65.9276 4.75356 65.9689 4.79507 65.9896C4.79507 65.9896 4.83659 66.1136 4.89886 66.1343C5.00265 66.3616 5.16871 66.5683 5.37629 66.7129C5.83296 67.3123 6.3519 67.8496 6.93311 68.325C6.95387 68.3456 6.97463 68.3663 7.01614 68.387C7.0369 68.4696 7.09917 68.5316 7.1822 68.5316C7.1822 68.5316 7.24448 68.635 7.30675 68.6556C7.38978 68.8003 7.49357 68.9036 7.63887 68.9656C7.68039 69.0896 7.76342 69.131 7.86721 69.1723C7.88796 69.2343 7.95024 69.2963 8.03327 69.2963C8.28236 69.565 8.53145 69.7923 8.86357 69.937C8.90509 69.9577 8.94661 69.999 9.00888 70.0197C10.2543 71.0117 11.6451 71.7557 13.0981 72.4377C13.0981 72.3137 13.0774 72.1897 13.0774 72.0657C13.0774 60.3682 25.1376 55.9868 40.0208 55.9868C54.9041 55.9868 66.9642 60.3682 66.9642 72.0657C66.9642 72.479 66.9227 72.8717 66.8812 73.2644H66.902C66.985 73.2644 67.068 73.2437 67.1303 73.2024C68.4796 72.6444 69.7458 71.9004 70.929 71.053C71.614 70.557 72.3197 70.0817 72.8802 69.441C72.9009 69.4203 72.9425 69.379 72.9632 69.3583C73.1293 69.3377 73.2123 69.193 73.3161 69.0896C74.9352 67.519 76.2429 65.7416 77.2185 63.7162C77.8828 62.3935 78.4225 61.0089 78.7546 59.5622C78.7546 59.5002 78.7546 59.4588 78.7546 59.3968C79.0244 58.7355 79.149 58.0328 79.232 57.3301C74.5615 57.3301 69.8911 51.812 68.4588 44.3099L68.4796 44.2893Z" fill="#EF4231"/>
<path d="M79.2943 57.103C79.4188 56.9583 79.4188 56.793 79.3981 56.6276C79.5226 56.4003 79.4396 56.1316 79.5226 55.9043C79.5641 55.8423 79.6264 55.7596 79.6264 55.6976C79.7094 54.6643 79.8132 53.6309 79.8755 52.5769C79.9378 51.5435 79.834 50.5102 79.9378 49.4768C80 48.9188 80.0416 48.3608 79.8755 47.8028C79.8755 47.1415 79.8132 46.5008 79.7302 45.8395C79.6057 44.8681 79.5641 43.8968 79.4188 42.9254C78.7753 38.7714 77.4469 34.824 75.5372 31.0832C75.3296 30.6906 75.1635 30.2772 74.8729 29.9259C74.5408 29.3265 74.2087 28.7272 73.835 28.1692C69.4136 29.8019 67.0473 36.7047 68.4796 44.2688C69.9118 51.7709 74.5823 57.289 79.2528 57.289C79.2528 57.227 79.2528 57.165 79.2735 57.103H79.2943Z" fill="#EDEDED"/>
<path d="M13.0978 44.2894C14.6339 36.2086 11.8316 28.8718 6.82903 27.9211C6.66297 27.8798 6.49691 27.8798 6.33085 27.8591C6.24782 27.9831 6.18554 28.1071 6.10251 28.2311C5.97797 28.2725 5.95721 28.3551 5.95721 28.4791C5.95721 28.4998 5.91569 28.5205 5.91569 28.5411C5.91569 28.5618 5.89494 28.6031 5.87418 28.6238C5.87418 28.6238 5.72887 28.7271 5.74963 28.8305C5.74963 28.8305 5.72887 28.8718 5.70812 28.8925C5.58357 28.9131 5.56281 29.0372 5.50054 29.1198C3.61159 32.3645 2.20007 35.8159 1.26598 39.4326C0.601734 42.0573 0.124307 44.7027 0.10355 47.4101H0.0620345C0.0620345 47.4101 0.0620345 47.4514 0.0827922 47.4721C0.0827922 47.6788 0.0827922 47.9061 0.0827922 48.1128C-0.083269 48.2368 -0.000238441 48.4228 -0.000238441 48.5674C-0.000238441 49.9521 -0.000238437 51.3368 0.0827922 52.7008C0.124307 53.2175 0.10355 53.7549 0.18658 54.2509C0.228096 54.5195 0.18658 54.8089 0.352642 55.0775C0.352642 55.1189 0.352642 55.1602 0.352642 55.2015C0.352642 55.2429 0.394157 55.2635 0.394157 55.3049C0.394157 55.4496 0.414915 55.6149 0.435672 55.7596C0.435672 55.8009 0.45643 55.8216 0.477188 55.8629C0.518703 56.1316 0.539461 56.4002 0.580976 56.6896C0.580976 56.8136 0.622491 56.9169 0.664006 57.0202C0.850825 57.0822 1.03764 57.1442 1.22446 57.1856C6.22706 58.1363 11.541 52.3495 13.0978 44.248V44.2894Z" fill="#EDEDED"/>
<path d="M23.5186 25.7098C23.5186 35.0099 31.0951 42.5741 40.4568 42.5741C49.8185 42.5741 57.395 35.0306 57.395 25.7098C57.395 16.389 49.8808 8.92821 40.6021 8.86621C40.4776 8.86621 40.3738 8.86621 40.2492 8.86621C31.0121 8.99021 23.5393 16.4717 23.5393 25.7098H23.5186Z" fill="#EDEDED"/>
</g>
<defs>
<clipPath id="clip0_223_2">
<rect width="80" height="88" fill="white"/>
</clipPath>
</defs>
</svg>
