<svg width="188" height="47" viewBox="0 0 188 47" fill="none" xmlns="http://www.w3.org/2000/svg">
<path fill-rule="evenodd" clip-rule="evenodd" d="M24.47 46.0881C9.801 46.0881 0 35.6881 0 23.0881C0 10.4881 9.826 -0.0339178 24.449 8.22233e-05H162.638C177.265 -0.0339178 187.087 10.4811 187.087 23.0861C187.087 35.6911 177.287 46.0861 162.614 46.0861L24.47 46.0881Z" fill="#CC2131"/>
<path fill-rule="evenodd" clip-rule="evenodd" d="M24.5159 5.66602C12.9029 5.68602 5.77295 13.449 5.77295 23.05C5.77295 32.651 12.8569 40.474 24.5159 40.431H162.565C174.223 40.474 181.311 32.65 181.311 23.05C181.311 13.45 174.183 5.69201 162.565 5.67101H24.5159V5.66602Z" fill="white"/>
<path fill-rule="evenodd" clip-rule="evenodd" d="M18.5651 12.1568H25.3211L34.6761 27.2848L34.6651 12.1568H41.3701V33.8568H34.6701L25.2701 18.7278V33.8568H18.5581L18.5651 12.1568ZM77.8431 14.3908H84.3651V17.3098H87.8981V19.4528H84.3651V33.8528H77.8391V19.4528H74.2961V17.3118H77.8441L77.8431 14.3908ZM45.1081 19.4268H51.6331V33.8548H45.1081V19.4268ZM45.0941 12.1528H51.6331V16.5888H45.0941V12.1528ZM162.065 26.5248C162.065 26.5248 162.065 28.7028 162.065 29.5798C162.065 31.8798 160.708 32.8298 159.397 32.8298C158.086 32.8298 156.725 31.8788 156.725 29.5798C156.725 28.7028 156.725 26.4708 156.725 26.4708C156.725 26.4708 156.731 24.3378 156.731 23.4608C156.731 21.1708 158.092 20.2288 159.393 20.2288C160.694 20.2288 162.061 21.1708 162.061 23.4608C162.061 24.3378 162.061 25.9528 162.061 26.5348V26.5248H162.065ZM159.444 18.4408C154.18 18.4408 149.913 22.0688 149.913 26.5408C149.913 31.0128 154.181 34.6408 159.444 34.6408C164.707 34.6408 168.981 31.0138 168.981 26.5408C168.981 22.0678 164.714 18.4408 159.444 18.4408ZM141.344 12.1568H147.783V33.8508H141.335V33.0208C140.229 33.7331 138.961 34.156 137.648 34.2505C136.336 34.345 135.02 34.1082 133.823 33.5618C132.464 32.9327 131.319 31.9211 130.526 30.6509C129.733 29.3806 129.328 27.9068 129.36 26.4098C129.397 25.3651 129.642 24.3383 130.081 23.3897C130.52 22.441 131.145 21.5897 131.917 20.8857C132.69 20.1817 133.596 19.6392 134.581 19.2901C135.566 18.941 136.612 18.7924 137.655 18.8528C138.967 18.9976 140.23 19.4376 141.348 20.1398L141.344 12.1568ZM141.391 26.5678V23.9898C141.423 23.6349 141.38 23.2773 141.265 22.9398C141.151 22.6023 140.968 22.2923 140.727 22.0295C140.487 21.7666 140.194 21.5568 139.868 21.4132C139.542 21.2696 139.189 21.1954 138.833 21.1954C138.477 21.1954 138.124 21.2696 137.798 21.4132C137.472 21.5568 137.179 21.7666 136.939 22.0295C136.698 22.2923 136.515 22.6023 136.401 22.9398C136.286 23.2773 136.244 23.6349 136.275 23.9898C136.275 24.7258 136.275 26.5618 136.275 26.5618C136.275 26.5618 136.275 28.3568 136.275 29.1258C136.242 29.4817 136.284 29.8405 136.397 30.1794C136.511 30.5183 136.694 30.8297 136.934 31.0939C137.175 31.358 137.468 31.569 137.795 31.7134C138.122 31.8577 138.476 31.9323 138.833 31.9323C139.19 31.9323 139.544 31.8577 139.871 31.7134C140.198 31.569 140.491 31.358 140.732 31.0939C140.973 30.8297 141.156 30.5183 141.269 30.1794C141.383 29.8405 141.424 29.4817 141.391 29.1258V26.5678ZM66.9061 18.7598C69.3441 18.6928 74.2961 20.2898 74.2601 26.0038C74.2531 27.0158 74.2601 33.8518 74.2601 33.8518H67.7761V24.3768C67.7176 23.6354 67.3751 22.9451 66.8201 22.4499C66.2651 21.9547 65.5404 21.6928 64.7971 21.7188C64.0406 21.6901 63.3012 21.9479 62.7265 22.4407C62.1518 22.9334 61.7842 23.6248 61.6971 24.3768L61.7041 33.8518H55.2261L55.2211 19.4248H61.7041C61.7041 19.4248 61.6971 20.5868 61.7041 20.9408C63.1094 19.5985 64.9616 18.8234 66.9041 18.7648L66.9061 18.7598ZM119.933 18.7598C122.367 18.6928 127.318 20.2898 127.287 26.0038C127.277 27.0158 127.281 33.8518 127.281 33.8518H120.799V24.3768C120.741 23.6352 120.399 22.9446 119.844 22.4493C119.289 21.954 118.564 21.6923 117.82 21.7188C117.064 21.6911 116.325 21.9492 115.75 22.4418C115.176 22.9343 114.808 23.6252 114.72 24.3768L114.73 33.8518H108.253V19.4248H114.726C114.726 19.4248 114.716 20.5868 114.726 20.9408C116.133 19.5971 117.987 18.8219 119.931 18.7648L119.933 18.7598ZM93.9811 24.4548C93.8697 23.4896 94.0174 22.5121 94.4091 21.6228C94.6454 21.2229 94.9818 20.8914 95.385 20.6609C95.7883 20.4303 96.2446 20.3086 96.7091 20.3078C97.1731 20.3077 97.6291 20.429 98.0317 20.6597C98.4343 20.8904 98.7696 21.2225 99.0041 21.6228C99.3949 22.5123 99.5426 23.4896 99.4321 24.4548H93.9811ZM99.3991 28.8068C99.3991 28.8068 99.4051 28.8708 99.4051 29.6838C99.4051 32.3228 97.6691 32.9108 96.7051 32.9108C95.7411 32.9108 93.9731 32.3228 93.9731 29.6838C93.9731 28.8908 93.9831 26.7038 93.9831 26.7038H106.27C106.27 22.2278 101.952 18.5208 96.6451 18.5208C91.3381 18.5208 87.0381 22.1488 87.0381 26.6208C87.0381 31.0928 91.3381 34.7208 96.6451 34.7208C101.045 34.7208 104.764 32.2068 105.903 28.7968L99.3961 28.8028L99.3991 28.8068ZM169.433 17.3198H168.681V12.3788H170.565C171.729 12.3788 172.309 12.8098 172.309 13.7788C172.319 13.9536 172.293 14.1285 172.233 14.293C172.173 14.4575 172.08 14.608 171.96 14.7353C171.84 14.8627 171.696 14.9643 171.535 15.0338C171.374 15.1034 171.201 15.1394 171.026 15.1398L172.426 17.3158H171.59L170.29 15.1728H169.433V17.3158V17.3198ZM170.327 14.5418C170.962 14.5418 171.527 14.4978 171.527 13.7418C171.527 13.1308 170.972 13.0158 170.455 13.0158H169.435V14.5458L170.327 14.5418Z" fill="#CC2131"/>
</svg>
