<svg width="94" height="94" viewBox="0 0 94 94" fill="none" xmlns="http://www.w3.org/2000/svg">
<g clip-path="url(#clip0_225_32)">
<path opacity="0.85" d="M93.6829 43.7039C93.5366 42.5564 93.4878 41.4088 93.3171 40.2613C92.561 35.3538 91 30.6904 88.7561 26.2712C88.5122 25.8073 88.3171 25.319 87.9756 24.9039C87.4634 23.9761 86.9756 23.0483 86.3415 22.1938C86.3415 22.1694 86.3415 22.1449 86.2927 22.1449C86.2927 21.9984 86.1951 21.8764 86.0976 21.7543C84.9025 19.9475 83.6098 18.214 82.1951 16.5782C78.439 12.2322 74.0244 8.66753 69 5.88416C67.8293 5.24935 66.6586 4.59013 65.3903 4.15065C65.3903 4.12623 65.3659 4.12623 65.3415 4.12623L65.1951 4.05299C65.1951 4.05299 65.1707 4.02857 65.1464 4.02857C65.0976 3.93091 65 3.90649 64.9025 3.90649C64.7073 3.83325 64.4878 3.73558 64.2927 3.66234C64.2439 3.66234 64.1951 3.61351 64.1464 3.58909C64.0732 3.56468 63.9756 3.54026 63.9025 3.51584C63.8293 3.49143 63.7561 3.4426 63.6829 3.41818C63.6342 3.41818 63.561 3.39377 63.5122 3.36935C63.4634 3.36935 63.439 3.32052 63.3903 3.2961C63.0732 3.14961 62.7805 3.00312 62.439 2.92987C62.4147 2.92987 62.3659 2.92987 62.3415 2.90545H62.2927C62.2439 2.90545 62.1951 2.85662 62.1464 2.83221L61.8049 2.71013C61.561 2.5148 61.2927 2.46597 61 2.44156H60.8781C60.8781 2.44156 60.7805 2.36831 60.7317 2.3439C60.4147 2.22182 60.0732 2.09974 59.7317 2.02649C59.6098 1.90442 59.4634 1.85558 59.2683 1.90442C59.1951 1.88 59.0976 1.83117 59.0244 1.80675C58.7561 1.66026 58.4634 1.58701 58.1464 1.5626C58 1.51377 57.8293 1.48935 57.6829 1.44052C57.5854 1.39169 57.5122 1.29403 57.3903 1.36727C57.2927 1.36727 57.2195 1.31844 57.122 1.29403C57.0976 1.29403 57.0488 1.29403 57.0244 1.26961C56.9512 1.26961 56.8781 1.24519 56.8049 1.22078C56.7073 1.12312 56.5854 1.12312 56.4634 1.14753C56.3903 1.14753 56.3171 1.12312 56.2439 1.0987C56.1464 1.02545 56.0244 1.00104 55.9025 1.02545H55.8537C55.8049 1.02545 55.7561 1.00104 55.7073 0.976623C55.6829 0.976623 55.6342 0.976623 55.6098 0.976623C55.5122 0.976623 55.439 0.952207 55.3415 0.927792H55.2927C55.2195 0.854545 55.1464 0.854545 55.0488 0.878961C55.0488 0.878961 55.0244 0.878961 55 0.878961C54.7073 0.708051 54.4147 0.683636 54.0732 0.683636C54.0244 0.683636 53.9512 0.683636 53.9025 0.65922C52.8537 0.488311 51.8293 0.292986 50.7561 0.268571C50.7317 0.195324 50.6586 0.170909 50.5854 0.195324C50.5122 0.195324 50.439 0.195324 50.3415 0.21974C49.2439 -0.0732473 48.0976 0.024415 47 0.024415C45.9025 0.024415 44.7561 -0.0488317 43.6342 0.195324C43 0.195324 42.3903 0.390649 41.7561 0.43948C41.7317 0.43948 41.6829 0.43948 41.6586 0.43948C41.4878 0.390649 41.3171 0.341818 41.1464 0.512727C40.8293 0.708051 40.4634 0.585974 40.1464 0.683636L39.8781 0.732467C39.5854 0.732467 39.2927 0.732467 39.0488 0.903376C38.9756 0.903376 38.9025 0.903376 38.8049 0.927792C38.439 0.927792 38.0976 0.976623 37.7561 1.14753L37.5854 1.19636C37.5854 1.19636 37.3659 1.19636 37.2927 1.26961C37.2439 1.26961 37.1708 1.26961 37.122 1.29403C36.1951 1.46493 35.2927 1.66026 34.439 2.02649C34.3903 2.02649 34.3171 2.05091 34.2683 2.07532C34.1708 2.02649 34.0732 2.07532 34.0244 2.14857C33.9756 2.14857 33.9269 2.17299 33.8781 2.1974C33.7317 2.17299 33.6098 2.22182 33.4878 2.29506L33.3659 2.3439C33.0976 2.36831 32.8537 2.44156 32.6342 2.58805C32.561 2.58805 32.4878 2.58805 32.439 2.63688C32.3659 2.63688 32.3171 2.63688 32.2439 2.6613C29.5854 3.58909 27.0488 4.71221 24.6098 6.1039C23.9512 6.47013 23.2683 6.81195 22.6829 7.30026C22.6586 7.30026 22.6342 7.30026 22.6098 7.32467C21.6829 7.81299 20.8049 8.39896 20 9.10701C19.8293 9.13143 19.6829 9.22909 19.6098 9.4C19.5854 9.4 19.561 9.4 19.561 9.44883C19.1464 9.66857 18.7561 9.91273 18.4878 10.279C18.439 10.3278 18.3903 10.3522 18.3171 10.401C18.1464 10.401 18.0488 10.5231 18 10.6696C17.9756 10.6696 17.9512 10.6696 17.9512 10.7184C17.5122 10.9382 17.1708 11.2556 16.8537 11.6218C16.8049 11.6706 16.7561 11.7195 16.7073 11.7439C16.439 11.8416 16.2439 12.0369 16.0976 12.281C15.6342 12.6961 15.1708 13.1356 14.7073 13.5506C14.2683 13.7948 13.9025 14.161 13.6586 14.6005C13.2683 15.0156 12.8781 15.4306 12.4878 15.8457C12.3659 15.8457 12.3171 15.919 12.3171 16.041C12.1708 16.1875 12.0488 16.3584 11.9025 16.5049C11.7561 16.5538 11.6342 16.627 11.6342 16.7979C11.6342 16.7979 11.6098 16.8468 11.5854 16.8712C11.4878 16.8956 11.4147 16.9688 11.4147 17.0665C11.122 17.4083 10.8293 17.7745 10.5366 18.1164C10.3903 18.1408 10.3415 18.2629 10.3415 18.3849C10.2195 18.5558 10.0732 18.7023 9.95124 18.8732L9.87807 18.9709C9.87807 18.9709 9.82929 19.0442 9.8049 19.0686C9.68295 19.0686 9.63417 19.1662 9.65856 19.2883C9.65856 19.2883 9.63417 19.3371 9.60978 19.3616C9.46344 19.386 9.41466 19.4836 9.41466 19.6301L9.14636 20.0208C9.14636 20.0208 8.97563 20.1184 8.97563 20.2405C8.97563 20.2405 8.95124 20.2894 8.92685 20.3138C8.90246 20.3382 8.87807 20.387 8.85368 20.4114L8.8049 20.5091C8.8049 20.5091 8.78051 20.5579 8.75612 20.5823C8.51222 20.7532 8.36588 20.9974 8.29271 21.266C8.24393 21.3392 8.19514 21.3881 8.14636 21.4613C8.14636 21.4857 8.09758 21.5345 8.09758 21.559C8.02441 21.6566 7.97563 21.7543 7.90246 21.8519C7.78051 21.8764 7.73173 21.9496 7.75612 22.0717C7.75612 22.0717 7.73173 22.1205 7.70734 22.1449C7.58539 22.1694 7.561 22.267 7.561 22.3647C7.43905 22.5356 7.34149 22.7309 7.21954 22.9018C7.07319 22.9507 7.0488 23.0483 7.0488 23.1948C7.0488 23.2192 7.00002 23.2436 7.00002 23.2681C7.00002 23.2925 6.97563 23.3413 6.95124 23.3657C6.95124 23.3657 6.78051 23.4878 6.8049 23.6099C6.8049 23.6099 6.78051 23.6587 6.75612 23.6831C6.60978 23.7075 6.58539 23.854 6.51222 23.9517C4.29271 27.7849 2.63417 31.8623 1.53661 36.1351C0.756121 39.2358 0.195146 42.361 0.170756 45.5595H0.121975C0.121975 45.5595 0.121975 45.6083 0.146365 45.6327C0.146365 45.8769 0.146365 46.1455 0.146365 46.3896C-0.0487567 46.5361 0.0488043 46.7558 0.0488043 46.9268C0.0488043 48.5626 0.0488043 50.1984 0.146365 51.8099C0.195146 52.4203 0.170756 53.0551 0.268316 53.641C0.317097 53.9584 0.268316 54.3003 0.463438 54.6177C0.463438 54.6665 0.463438 54.7153 0.463438 54.7642C0.463438 54.813 0.512219 54.8374 0.512219 54.8862C0.512219 55.0571 0.536609 55.2525 0.560999 55.4234C0.560999 55.4722 0.58539 55.4966 0.60978 55.5455C0.65856 55.8629 0.682951 56.1803 0.731731 56.5221C0.731731 56.8639 0.926853 57.1569 1.02441 57.4743C1.00002 57.572 1.02441 57.6696 1.09758 57.7673C1.14637 58.3044 1.29271 58.8171 1.51222 59.281C1.51222 59.3543 1.561 59.4031 1.561 59.4764C1.68295 60.2088 1.97563 60.8681 2.24393 61.5273C2.75612 62.8213 3.3171 64.0909 4.12197 65.2384C4.17076 65.4338 4.24393 65.6047 4.41466 65.7023C4.70734 66.3127 5.09758 66.8499 5.561 67.3382C5.58539 67.3626 5.60978 67.4114 5.65856 67.4359C5.65856 67.4359 5.70734 67.5823 5.78051 67.6068C5.90246 67.8753 6.09758 68.1195 6.34149 68.2904C6.87807 68.9984 7.48783 69.6333 8.17075 70.1948C8.19514 70.2192 8.21954 70.2436 8.26832 70.2681C8.29271 70.3657 8.36588 70.439 8.46344 70.439C8.46344 70.439 8.53661 70.561 8.60978 70.5855C8.70734 70.7564 8.82929 70.8784 9.00002 70.9517C9.0488 71.0982 9.14636 71.147 9.26832 71.1958C9.29271 71.2691 9.36588 71.3423 9.46344 71.3423C9.75612 71.6597 10.0488 71.9283 10.439 72.0992C10.4878 72.1236 10.5366 72.1725 10.6098 72.1969C12.1464 73.4177 13.8537 74.3455 15.6342 75.1512C15.8781 76.0301 15.8537 76.9335 16 77.8369C16.3659 80.1564 17.1708 82.3293 18.5122 84.2582C19.5854 85.8452 20.9512 87.188 22.5122 88.3112C24.7561 89.947 27.2683 91.0457 29.9269 91.827C32.2439 92.5107 34.5854 92.999 36.9756 93.3164C39.4147 93.6582 41.8537 93.8291 44.3171 93.9268C47.5366 94.0488 50.7561 93.9756 53.9756 93.6826C56.0732 93.4873 58.1464 93.2187 60.2195 92.8281C62.0732 92.4618 63.9025 91.9735 65.6829 91.3631C67.3415 90.7771 68.9268 90.0447 70.3903 89.1169C70.7805 88.8727 71.2439 88.7018 71.4878 88.2623C72.0244 88.0914 72.3903 87.7008 72.7317 87.3101C73.2195 86.9439 73.7805 86.6509 74.0488 86.0649C74.0488 86.0405 74.0732 86.0161 74.0732 85.9917C74.2927 85.9429 74.4147 85.8208 74.4634 85.601C74.4878 85.5766 74.5122 85.5522 74.5366 85.5034C74.8781 85.2104 75.2195 84.893 75.3659 84.4291C75.3659 84.4047 75.3903 84.3803 75.3903 84.3314C75.7561 84.014 76 83.6478 76.122 83.1839C76.122 83.1595 76.1464 83.1351 76.1464 83.1107C76.5366 82.7688 76.6829 82.3293 76.8049 81.8655C76.8049 81.8166 76.8049 81.7678 76.8293 81.6945C76.9268 81.6457 77 81.5969 76.9756 81.4748C76.9756 81.4016 77 81.3039 77.0244 81.2307C77.2927 80.9132 77.4147 80.547 77.439 80.1564C77.439 80.0343 77.4634 79.9122 77.4878 79.8145C77.5854 79.7657 77.6586 79.7169 77.6098 79.5948C77.7073 79.4239 77.7561 79.2286 77.7317 79.0088C77.8293 78.96 77.8537 78.9112 77.7805 78.8135C77.7805 78.7647 77.7805 78.7158 77.7805 78.667C77.8781 78.6182 77.9268 78.5449 77.9512 78.4473C78.0488 77.7148 78.1464 76.9823 78.2439 76.2499C78.3659 76.2499 78.4878 76.2255 78.561 76.1034C78.5854 76.1034 78.6098 76.1034 78.6342 76.0546C78.7317 76.0546 78.8293 76.0301 78.9025 75.9813C80.4878 75.3221 81.9756 74.4431 83.3659 73.4421C84.1708 72.8561 85 72.2945 85.6586 71.5377C85.6829 71.5133 85.7317 71.4644 85.7561 71.44C85.9512 71.4156 86.0488 71.2447 86.1708 71.1226C88.0732 69.267 89.6098 67.1673 90.7561 64.7746C91.5366 63.212 92.1708 61.5761 92.561 59.867C92.561 59.7938 92.561 59.7449 92.561 59.6717C92.8781 58.866 93.0488 58.0359 93.122 57.2057C93.122 57.1325 93.122 57.0592 93.1464 56.986C93.2927 56.8151 93.2927 56.6197 93.2683 56.4244C93.4147 56.1559 93.3171 55.8384 93.4147 55.5699C93.4634 55.4966 93.5366 55.399 93.5366 55.3257C93.6342 54.1049 93.7561 52.8842 93.8293 51.639C93.9025 50.4182 93.7805 49.1974 93.9025 47.9766C93.9756 47.3174 94.0244 46.6582 93.8293 45.999C93.8293 45.2177 93.7561 44.4608 93.6586 43.6795L93.6829 43.7039Z" fill="#ED1C24"/>
</g>
<defs>
<clipPath id="clip0_225_32">
<rect width="94" height="94" fill="white"/>
</clipPath>
</defs>
</svg>
