<svg width="30" height="30" viewBox="0 0 30 30" fill="none" xmlns="http://www.w3.org/2000/svg">
<path d="M27.391 30.003L17.035 19.643C16.1891 20.2896 15.2433 20.7939 14.235 21.136C13.1431 21.5096 11.996 21.6962 10.842 21.688C9.413 21.7158 7.99346 21.4505 6.67101 20.9084C5.34855 20.3662 4.15124 19.5589 3.15299 18.536C2.13038 17.5372 1.32323 16.3394 0.781298 15.0166C0.239366 13.6939 -0.0258601 12.2741 0.00198611 10.8449C-0.0258601 9.41575 0.239366 7.99601 0.781298 6.67325C1.32323 5.3505 2.13038 4.15279 3.15299 3.15396C4.15124 2.13109 5.34855 1.32365 6.67101 0.781528C7.99346 0.239406 9.413 -0.0258697 10.842 0.00198722C12.271 -0.0258697 13.6905 0.239406 15.013 0.781528C16.3354 1.32365 17.5327 2.13109 18.531 3.15396C19.5536 4.15279 20.3607 5.3505 20.9027 6.67325C21.4446 7.99601 21.7098 9.41575 21.682 10.8449C21.6912 11.9994 21.5046 13.147 21.13 14.239C20.7882 15.2425 20.2838 16.183 19.637 17.023L29.999 27.403L27.391 30.003ZM10.839 17.972C11.7778 17.9893 12.7101 17.814 13.5785 17.4569C14.4469 17.0999 15.2329 16.5686 15.888 15.896C16.5605 15.2404 17.0916 14.454 17.4485 13.5853C17.8054 12.7166 17.9805 11.7839 17.963 10.8449C17.9804 9.90595 17.8053 8.97336 17.4484 8.10465C17.0915 7.23594 16.5605 6.44956 15.888 5.79398C15.2329 5.12133 14.4469 4.59006 13.5785 4.23301C12.7101 3.87595 11.7778 3.70069 10.839 3.71799C9.90022 3.70069 8.96786 3.87595 8.09947 4.23301C7.23107 4.59006 6.44507 5.12133 5.78999 5.79398C5.11751 6.44956 4.58646 7.23594 4.22959 8.10465C3.87271 8.97336 3.69758 9.90595 3.71499 10.8449C3.69752 11.7839 3.87262 12.7166 4.2295 13.5853C4.58638 14.454 5.11746 15.2404 5.78999 15.896C6.44496 16.5685 7.23079 17.0996 8.099 17.4567C8.96721 17.8138 9.90039 17.9891 10.839 17.972Z" fill="black"/>
</svg>
