<svg width="48" height="47" viewBox="0 0 48 47" fill="none" xmlns="http://www.w3.org/2000/svg">
<path d="M11.8805 0.75H36.1908C42.0176 0.75 46.7856 5.64984 46.7856 11.75V35.25C46.7856 41.3502 42.0176 46.25 36.1908 46.25H11.8805C6.0537 46.25 1.28564 41.3502 1.28564 35.25V11.75C1.28564 5.64984 6.0537 0.75 11.8805 0.75Z" fill="#FFF3F3" stroke="black" stroke-width="1.5"/>
<path d="M23.0558 27.1155L16.3149 34.5H14.4825L22.3593 25.8673L22.7907 25.3945L22.3915 24.8941L13.8434 14.1796H19.8889L25.1642 20.8671L25.7115 21.561L26.3071 20.9081L32.4458 14.1786H34.2759L26.9867 22.1675L26.5576 22.6378L26.9519 23.1376L35.9171 34.5H30.0557L24.196 27.1535L23.6482 26.4665L23.0558 27.1155ZM30.1741 33.5027L30.3993 33.785H30.7604H32.8996H34.4464L33.4884 32.5705L19.679 15.0635L19.4538 14.7779H19.0902H16.7947H15.237L16.2084 15.9957L30.1741 33.5027Z" fill="black" stroke="black" stroke-width="1.5"/>
</svg>
