<svg width="47" height="47" viewBox="0 0 47 47" fill="none" xmlns="http://www.w3.org/2000/svg">
<path d="M35.6552 0H11.3448C5.07925 0 0 5.26065 0 11.75V35.25C0 41.7393 5.07925 47 11.3448 47H35.6552C41.9207 47 47 41.7393 47 35.25V11.75C47 5.26065 41.9207 0 35.6552 0Z" fill="#FFF3F3"/>
<path d="M31.5792 13.4286H35.4399L27.0051 22.673L36.9286 35.25H29.1589L23.0741 27.6211L16.1101 35.25H12.2473L21.2696 25.3618L11.75 13.4296H19.7169L25.2174 20.4026L31.5792 13.4286ZM30.2248 33.035H32.3639L18.5545 15.5279H16.2591L30.2248 33.035Z" fill="black"/>
</svg>
