<svg width="47" height="47" viewBox="0 0 47 47" fill="none" xmlns="http://www.w3.org/2000/svg">
<path d="M35.6552 0H11.3448C5.07925 0 0 5.26065 0 11.75V35.25C0 41.7393 5.07925 47 11.3448 47H35.6552C41.9207 47 47 41.7393 47 35.25V11.75C47 5.26065 41.9207 0 35.6552 0Z" fill="#FFF3F3"/>
<path d="M39.9629 20.7562C40.0305 18.7192 39.5733 16.6984 38.6334 14.8795C38.0054 14.121 37.1204 13.6076 36.1388 13.4324C32.1064 13.0898 28.0587 12.9506 24.0118 13.0155C19.9653 12.9506 15.9181 13.0898 11.8862 13.4324C11.0862 13.5775 10.3473 13.9446 9.75381 14.4868C8.45194 15.6678 8.35739 17.6898 8.16102 19.3945C7.94633 22.4653 7.94633 25.547 8.16102 28.6179C8.19739 29.5798 8.3443 30.5346 8.60031 31.4637C8.77486 32.1837 9.12687 32.8497 9.62871 33.4032C10.2222 33.9752 10.9786 34.3594 11.7975 34.5059C14.9335 34.8846 18.0934 35.0405 21.2524 34.9727C26.3362 35.0523 30.8135 34.9684 36.0879 34.5799C36.93 34.4378 37.7081 34.0487 38.3192 33.4644C38.7163 33.0773 39.0174 32.6078 39.1978 32.0898C39.7244 30.5317 39.9833 28.8982 39.9629 27.2576C40.0124 26.4109 40.0124 21.6028 39.9629 20.7548V20.7562ZM29.3298 23.6874L29.324 23.6846C28.1167 24.3391 26.7232 25.0307 25.254 25.7606C23.7298 26.5082 22.2164 27.2766 20.7142 28.0658V19.2579C22.1499 19.9949 23.5696 20.7192 24.998 21.4492C26.4235 22.1805 27.8592 22.9205 29.324 23.6846L29.3414 23.6746L29.3298 23.6874Z" fill="#DF1212"/>
</svg>
