<svg width="47" height="47" viewBox="0 0 47 47" fill="none" xmlns="http://www.w3.org/2000/svg">
<path d="M11.3448 0.75H35.6552C41.4819 0.75 46.25 5.64984 46.25 11.75V35.25C46.25 41.3502 41.4819 46.25 35.6552 46.25H11.3448C5.51805 46.25 0.75 41.3502 0.75 35.25V11.75C0.75 5.64984 5.51805 0.75 11.3448 0.75Z" fill="#FFF3F3" stroke="black" stroke-width="1.5"/>
<path d="M39.3118 18.4195L39.3116 18.417C39.2171 17.3452 39.0798 16.3408 38.8933 15.6047C38.743 15.0158 38.4489 14.4825 38.0441 14.0564C37.6397 13.6308 37.1395 13.3273 36.595 13.1721C36.1121 13.036 35.2392 12.9177 34.119 12.8228C33.0169 12.7295 31.7311 12.6628 30.4566 12.6153C27.9101 12.5204 25.4358 12.5031 24.6181 12.5H24.4442H24.4422L24.0615 12.5021L24.0602 12.5021C22.1707 12.5092 20.2814 12.5445 18.3929 12.6082L18.0555 12.6227L18.0507 12.6229V12.6229L17.8793 12.6291L17.5389 12.6416L17.2055 12.656C17.205 12.656 17.2045 12.656 17.204 12.6561C14.9668 12.7618 12.9558 12.9284 12.0834 13.1722C11.5392 13.3275 11.0391 13.6309 10.6349 14.0564C10.2301 14.4825 9.93604 15.0158 9.78568 15.6047C9.59932 16.3383 9.46196 17.3447 9.36742 18.417L9.36719 18.4195L9.36719 18.4195L9.34763 18.6329L9.30432 19.1698L9.28907 19.3777L9.28347 19.4796L9.28307 19.4869L9.28303 19.4869L9.26917 19.7007C9.26916 19.701 9.26914 19.7012 9.26913 19.7014C9.16308 21.3909 9.14707 22.9245 9.14307 23.3747V23.6259C9.153 25.0295 9.20688 26.4324 9.30462 27.8322C9.30465 27.8326 9.30468 27.8331 9.30471 27.8335L9.32047 28.0483L9.3205 28.0489L9.33616 28.2644C9.43511 29.4504 9.57866 30.5871 9.78364 31.3952C9.93426 31.9836 10.2285 32.5165 10.6331 32.9422C11.0377 33.3677 11.5381 33.671 12.0827 33.826C12.4967 33.9437 13.2064 34.0494 14.1287 34.1378C15.0357 34.2247 16.1016 34.2909 17.2015 34.3418C17.202 34.3419 17.2024 34.3419 17.2028 34.3419L17.5412 34.3564L17.8821 34.3711L17.886 34.3712L18.0554 34.3794L18.3892 34.3918L18.3899 34.3918C21.0487 34.4875 23.5862 34.5 24.197 34.5L24.4787 34.5C24.4791 34.5 24.4795 34.5 24.4798 34.5C25.0871 34.4989 27.5779 34.4869 30.2028 34.3941C31.5166 34.3476 32.8571 34.2812 34.0088 34.1864C35.1797 34.0901 36.0953 33.9688 36.5952 33.8279C37.1396 33.6726 37.6398 33.3692 38.0441 32.9436C38.4488 32.5176 38.7428 31.9844 38.8932 31.3958C39.0985 30.5844 39.2422 29.448 39.3411 28.2611L39.3118 18.4195ZM39.3118 18.4195L39.3314 18.6329L39.3745 19.167L39.3749 19.1725L39.3901 19.3804C39.3902 19.3812 39.3902 19.3819 39.3903 19.3827C39.5179 21.2663 39.5339 23.0336 39.5359 23.4232V23.5767C39.5339 23.9802 39.5159 25.8691 39.3744 27.8318L39.3588 28.0473L39.3412 28.2605L39.3118 18.4195ZM21.5041 20.1268L20.401 19.5381V20.7885V28.0331V29.3072L21.515 28.6888L28.1693 24.995L29.374 24.3263L28.1584 23.6776L21.5041 20.1268Z" fill="#DF1212" stroke="black" stroke-width="1.5"/>
</svg>
